HIERARCHY
ROOT Hips
{
	OFFSET 15.585500 22.159004 44.358299
	CHANNELS 6 Xposition Yposition Zposition Zrotation Xrotation Yrotation
	JOINT Chest
	{
		OFFSET -0.128500 0.160400 6.566002
		CHANNELS 6 Xposition Yposition Zposition Zrotation Xrotation Yrotation
		JOINT Chest2
		{
			OFFSET 0.000000 0.000000 3.554802
			CHANNELS 6 Xposition Yposition Zposition Zrotation Xrotation Yrotation
			JOINT Neck
			{
				OFFSET 0.000000 0.000000 8.267998
				CHANNELS 6 Xposition Yposition Zposition Zrotation Xrotation Yrotation
				JOINT Head
				{
					OFFSET 0.000000 0.000002 2.173897
					CHANNELS 6 Xposition Yposition Zposition Zrotation Xrotation Yrotation
					End Site
					{
						OFFSET 0.000000 0.000000 7.718697
					}
				}
			}
			JOINT LeftCollar
			{
				OFFSET 2.057500 0.117599 5.946301
				CHANNELS 6 Xposition Yposition Zposition Zrotation Xrotation Yrotation
				JOINT LeftShoulder
				{
					OFFSET 4.957699 0.000000 0.000000
					CHANNELS 6 Xposition Yposition Zposition Zrotation Xrotation Yrotation
					JOINT LeftElbow
					{
						OFFSET 0.000000 0.000000 -8.465500
						CHANNELS 6 Xposition Yposition Zposition Zrotation Xrotation Yrotation
						JOINT LeftWrist
						{
							OFFSET 0.000000 -0.000002 -14.594898
							CHANNELS 6 Xposition Yposition Zposition Zrotation Xrotation Yrotation
							End Site
							{
								OFFSET 0.000000 0.000000 -2.173901
							}
						}
					}
				}
			}
			JOINT RightCollar
			{
				OFFSET -3.048500 -0.728800 6.604099
				CHANNELS 6 Xposition Yposition Zposition Zrotation Xrotation Yrotation
				JOINT RightShoulder
				{
					OFFSET -3.710299 0.000000 0.000000
					CHANNELS 6 Xposition Yposition Zposition Zrotation Xrotation Yrotation
					JOINT RightElbow
					{
						OFFSET 0.000000 0.000000 -10.450901
						CHANNELS 6 Xposition Yposition Zposition Zrotation Xrotation Yrotation
						JOINT RightWrist
						{
							OFFSET 0.000000 0.000000 -12.539200
							CHANNELS 6 Xposition Yposition Zposition Zrotation Xrotation Yrotation
							End Site
							{
								OFFSET 0.000000 -0.000002 -2.173901
							}
						}
					}
				}
			}
		}
	}
	JOINT LeftHip
	{
		OFFSET 2.442599 -0.601400 -2.767502
		CHANNELS 6 Xposition Yposition Zposition Zrotation Xrotation Yrotation
		JOINT LeftKnee
		{
			OFFSET 0.000000 -0.000002 -17.033703
			CHANNELS 6 Xposition Yposition Zposition Zrotation Xrotation Yrotation
			JOINT LeftAnkle
			{
				OFFSET 0.000000 -0.000002 -19.318800
				CHANNELS 6 Xposition Yposition Zposition Zrotation Xrotation Yrotation
				End Site
				{
					OFFSET 0.000000 -8.281900 0.000000
				}
			}
		}
	}
	JOINT RightHip
	{
		OFFSET -3.126200 -0.601400 -2.283501
		CHANNELS 6 Xposition Yposition Zposition Zrotation Xrotation Yrotation
		JOINT RightKnee
		{
			OFFSET 0.000000 -0.000002 -16.919401
			CHANNELS 6 Xposition Yposition Zposition Zrotation Xrotation Yrotation
			JOINT RightAnkle
			{
				OFFSET 0.000000 -0.000002 -18.035900
				CHANNELS 6 Xposition Yposition Zposition Zrotation Xrotation Yrotation
				End Site
				{
					OFFSET 0.000000 -9.230099 0.000000
				}
			}
		}
	}
}
MOTION
Frames: 4
Frame Time: 0.041667
27.514297 39.717907 5.177002 -48.895316 -40.236443 0.803180 -0.128499 0.160403 6.566003 53.133705 25.375044 -16.223728 -0.000000 0.000002 3.554805 -24.371881 -6.240510 -5.222140 0.000002 -0.000006 8.268001 38.792715 25.573579 -32.341817 -0.000000 0.000003 2.173895 0.692520 6.010616 2.425706 2.057505 0.117595 5.946306 -8.029424 -10.272034 22.659704 4.957700 0.000006 -0.000001 -3.429358 16.392640 -98.867801 -0.000001 0.000001 -8.465509 574.974613 -148.908465 261.941989 -0.000001 -0.000004 -14.594893 -1036.382961 -27.668053 -352.601631 -3.048502 -0.728806 6.604102 49.252597 11.823890 -16.193523 -3.710295 -0.000004 -0.000004 39.317963 -12.652737 50.524303 0.000002 0.000009 -10.450898 1063.434444 -60.892728 1058.339014 0.000002 0.000008 -12.539199 227.212130 191.750198 -102.222209 2.442595 -0.601392 -2.767503 69.878607 -39.414768 68.868579 0.000003 -0.000003 -17.033703 -420.222553 44.845817 377.297519 -0.000003 -0.000003 -19.318804 -262.449309 94.542030 609.062394 -3.126203 -0.601400 -2.283500 -83.325774 -49.976252 -50.673846 -0.000003 0.000001 -16.919395 441.628557 -3.289088 -143.522027 -0.000010 -0.000002 -18.035896 267.335134 50.179388 -101.713073
27.530205 39.717003 5.170494 -48.956153 -40.232611 0.792326 -0.128500 0.160398 6.566008 53.254623 25.540721 -16.119047 0.000001 -0.000007 3.554809 -24.723401 -6.274270 -5.306121 -0.000005 0.000001 8.268002 39.305461 25.659885 -32.789901 0.000004 0.000003 2.173889 0.639598 6.122585 2.512295 2.057507 0.117598 5.946305 -7.705401 -10.470891 22.603061 4.957694 0.000007 -0.000001 -3.588144 16.681871 -98.827004 0.000010 -0.000004 -8.465510 575.024337 -149.663993 262.034252 0.000003 0.000002 -14.594892 -1036.968281 -27.675491 -352.573846 -3.048501 -0.728798 6.604103 49.384515 11.794126 -16.033008 -3.710295 0.000001 0.000006 39.330012 -12.764944 50.145289 -0.000003 0.000006 -10.450898 1064.674042 -60.836201 1058.709046 0.000003 0.000005 -12.539203 226.854433 191.676145 -102.031633 2.442598 -0.601394 -2.767501 69.628151 -39.644474 68.714210 0.000003 0.000000 -17.033705 -420.310744 44.675424 377.377678 0.000003 -0.000002 -19.318804 -261.521714 94.581495 608.442322 -3.126203 -0.601398 -2.283500 -83.375224 -49.978048 -50.700617 0.000001 -0.000003 -16.919397 441.617793 -3.334107 -143.529445 -0.000004 -0.000003 -18.035896 267.315518 50.233832 -101.708982
27.543602 39.715603 5.159798 -48.978566 -40.288062 0.920062 -0.128498 0.160398 6.566008 53.393006 25.601390 -16.209839 0.000001 0.000002 3.554806 -25.055352 -6.252849 -5.370534 0.000002 -0.000004 8.267996 39.716741 25.771929 -33.132336 -0.000003 0.000002 2.173896 0.552483 6.194897 2.461723 2.057503 0.117598 5.946301 -7.285052 -10.395665 22.928014 4.957694 0.000004 0.000003 -3.831777 16.983325 -99.095239 0.000001 0.000001 -8.465499 575.300386 -150.099213 262.067720 0.000003 0.000002 -14.594885 -1037.280721 -27.759813 -352.385305 -3.048499 -0.728805 6.604096 49.439184 11.825090 -15.880757 -3.710294 0.000007 0.000000 39.559189 -12.672136 49.943450 0.000002 0.000006 -10.450895 1065.591801 -60.748146 1059.002253 0.000007 0.000002 -12.539199 226.376143 191.916882 -101.922398 2.442597 -0.601392 -2.767498 69.459561 -39.812766 68.567907 -0.000001 -0.000003 -17.033709 -420.220804 44.645972 377.302245 0.000005 -0.000003 -19.318802 -261.414671 94.587253 608.456966 -3.126197 -0.601406 -2.283500 -83.075885 -50.026788 -50.418479 -0.000000 0.000000 -16.919403 441.302484 -3.389970 -143.513927 -0.000009 -0.000003 -18.035898 267.239785 50.266934 -101.678636
27.547806 39.714203 5.153599 -49.018625 -40.327745 1.009473 -0.128494 0.160398 6.566006 53.519293 25.620169 -16.321027 -0.000003 0.000002 3.554813 -25.183708 -6.221404 -5.233684 0.000000 0.000003 8.268001 39.894541 25.943521 -33.419883 0.000001 0.000003 2.173904 0.508617 6.283085 2.248804 2.057509 0.117599 5.946300 -7.125254 -10.516065 22.864031 4.957699 0.000004 0.000004 -3.930706 17.156850 -99.025995 0.000003 -0.000003 -8.465502 575.364535 -150.098735 262.050753 0.000001 -0.000001 -14.594889 -1037.246734 -27.863229 -352.019508 -3.048497 -0.728797 6.604095 49.554057 11.891925 -15.662800 -3.710296 0.000005 0.000002 39.535225 -12.899324 49.770171 0.000000 0.000010 -10.450898 1066.732825 -60.754929 1059.356439 0.000004 0.000008 -12.539196 225.981002 191.885996 -101.877633 2.442601 -0.601394 -2.767498 69.523410 -39.810673 68.555005 0.000003 -0.000002 -17.033701 -420.747248 44.712980 377.640995 0.000000 -0.000003 -19.318802 -258.302154 94.322249 604.955428 -3.126196 -0.601404 -2.283494 -82.797110 -50.071844 -50.194364 -0.000002 0.000001 -16.919395 441.025287 -3.427716 -143.491893 -0.000007 -0.000002 -18.035898 267.174269 50.293289 -101.658220
